<svg width="731" height="835" viewBox="0 0 731 835" fill="none" xmlns="http://www.w3.org/2000/svg">
<path d="M716.22 3.98886H726.195V19.9443H716.22V3.98886Z" fill="#6C63FF"/>
<path d="M682.304 0H692.279V15.9554H682.304V0Z" fill="#6C63FF"/>
<path d="M664.349 0H674.324V15.9554H664.349V0Z" fill="#6C63FF"/>
<path d="M664.349 47.8662H674.324V63.8216H664.349V47.8662Z" fill="#6C63FF"/>
<path d="M644.398 23.9332H654.373V39.8886H644.398V23.9332Z" fill="#6C63FF"/>
<path d="M644.398 49.8607H654.373V65.816H644.398V49.8607Z" fill="#6C63FF"/>
<path d="M664.349 99.7213H674.324V115.677H664.349V99.7213Z" fill="#6C63FF"/>
<path d="M644.398 125.649H654.373V141.604H644.398V125.649Z" fill="#6C63FF"/>
<path d="M664.349 223.376H674.324V239.331H664.349V223.376Z" fill="#6C63FF"/>
<path d="M682.304 125.649H692.279V141.604H682.304V125.649Z" fill="#6C63FF"/>
<path d="M716.22 29.9164H726.195V45.8718H716.22V29.9164Z" fill="#6C63FF"/>
<path d="M716.22 279.22H726.195V295.175H716.22V279.22Z" fill="#6C63FF"/>
<path d="M716.22 331.075H726.195V347.03H716.22V331.075Z" fill="#6C63FF"/>
<path d="M716.22 357.002H726.195V372.958H716.22V357.002Z" fill="#6C63FF"/>
<path d="M716.22 57.8383H730.185V59.8328H716.22V57.8383Z" fill="#6C63FF"/>
<path d="M662.353 81.7715H676.319V83.7659H662.353V81.7715Z" fill="#6C63FF"/>
<path d="M716.22 185.482H730.185V187.476H716.22V185.482Z" fill="#6C63FF"/>
<path d="M716.22 207.42H730.185V209.415H716.22V207.42Z" fill="#6C63FF"/>
<path d="M662.353 335.064H676.319V337.058H662.353V335.064Z" fill="#6C63FF"/>
<path d="M678.314 382.93H692.279V384.924H678.314V382.93Z" fill="#6C63FF"/>
<path d="M726.195 75.7887V79.777H722.206V87.755H726.195V91.7433H716.22V75.7887H726.195Z" fill="#6C63FF"/>
<path d="M692.279 47.8667V51.855H688.289V59.8329H692.279V63.8212H682.304V47.8667H692.279Z" fill="#6C63FF"/>
<path d="M654.373 73.7933V77.7829H650.383V85.7608H654.373V89.7491H644.398V73.7933H654.373Z" fill="#6C63FF"/>
<path d="M654.373 151.577V155.565H650.383V163.543H654.373V167.532H644.398V151.577H654.373Z" fill="#6C63FF"/>
<path d="M654.373 177.504V181.493H650.383V189.471H654.373V193.459H644.398V177.504H654.373Z" fill="#6C63FF"/>
<path d="M654.373 97.727V101.715H650.383V109.693H654.373V113.683H644.398V97.727H654.373Z" fill="#6C63FF"/>
<path d="M674.324 23.9329V27.9225H670.333V35.8991H674.324V39.8887H664.348V23.9329H674.324Z" fill="#6C63FF"/>
<path d="M664.349 151.576H674.324V167.532H664.349V151.576Z" fill="#6C63FF"/>
<path d="M664.349 199.443H674.324V215.398H664.349V199.443Z" fill="#6C63FF"/>
<path d="M674.324 175.509V179.498H670.333V187.476H674.324V191.465H664.348V175.509H674.324Z" fill="#6C63FF"/>
<path d="M692.279 73.7933V77.7829H688.289V85.7608H692.279V89.7491H682.304V73.7933H692.279Z" fill="#6C63FF"/>
<path d="M692.279 99.7212V103.711H688.289V111.687H692.279V115.677H682.304V99.7212H692.279Z" fill="#6C63FF"/>
<path d="M682.304 177.504H692.279V193.459H682.304V177.504Z" fill="#6C63FF"/>
<path d="M692.279 151.577V155.565H688.289V163.543H692.279V167.532H682.304V151.577H692.279Z" fill="#6C63FF"/>
<path d="M682.304 229.359H692.279V245.314H682.304V229.359Z" fill="#6C63FF"/>
<path d="M692.279 203.431V207.42H688.289V215.398H692.279V219.387H682.304V203.431H692.279Z" fill="#6C63FF"/>
<path d="M682.304 281.214H692.279V297.169H682.304V281.214Z" fill="#6C63FF"/>
<path d="M664.349 277.225H674.324V293.181H664.349V277.225Z" fill="#6C63FF"/>
<path d="M692.279 255.286V259.276H688.289V267.253H692.279V271.242H682.304V255.286H692.279Z" fill="#6C63FF"/>
<path d="M654.373 255.286V259.276H650.383V267.253H654.373V271.242H644.398V255.286H654.373Z" fill="#6C63FF"/>
<path d="M542.651 23.9332H552.626V39.8886H542.651V23.9332Z" fill="#6C63FF"/>
<path d="M542.651 49.8607H552.626V65.816H542.651V49.8607Z" fill="#6C63FF"/>
<path d="M542.651 125.649H552.626V141.604H542.651V125.649Z" fill="#6C63FF"/>
<path d="M552.627 73.7933V77.7829H548.636V85.7608H552.627V89.7491H542.652V73.7933H552.627Z" fill="#6C63FF"/>
<path d="M552.627 151.577V155.565H548.636V163.543H552.627V167.532H542.652V151.577H552.627Z" fill="#6C63FF"/>
<path d="M552.627 177.504V181.493H548.636V189.471H552.627V193.459H542.652V177.504H552.627Z" fill="#6C63FF"/>
<path d="M552.627 97.727V101.715H548.636V109.693H552.627V113.683H542.652V97.727H552.627Z" fill="#6C63FF"/>
<path d="M552.627 255.286V259.276H548.636V267.253H552.627V271.242H542.652V255.286H552.627Z" fill="#6C63FF"/>
<path d="M682.304 333.069H692.279V349.024H682.304V333.069Z" fill="#6C63FF"/>
<path d="M664.349 303.153H674.324V319.108H664.349V303.153Z" fill="#6C63FF"/>
<path d="M682.304 400.88H692.279V416.835H682.304V400.88Z" fill="#6C63FF"/>
<path d="M664.349 353.013H674.324V368.969H664.349V353.013Z" fill="#6C63FF"/>
<path d="M692.279 307.142V311.13H688.289V319.108H692.279V323.097H682.304V307.142H692.279Z" fill="#6C63FF"/>
<path d="M692.279 428.802V432.79H688.289V440.768H692.279V444.756H682.304V428.802H692.279Z" fill="#6C63FF"/>
<path d="M572.577 0H582.552V15.9554H572.577V0Z" fill="#6C63FF"/>
<path d="M572.577 125.649H582.552V141.604H572.577V125.649Z" fill="#6C63FF"/>
<path d="M568.587 382.93H582.552V384.924H568.587V382.93Z" fill="#6C63FF"/>
<path d="M582.552 47.8667V51.855H578.561V59.8329H582.552V63.8212H572.577V47.8667H582.552Z" fill="#6C63FF"/>
<path d="M582.552 73.7933V77.7829H578.561V85.7608H582.552V89.7491H572.577V73.7933H582.552Z" fill="#6C63FF"/>
<path d="M582.552 99.7212V103.711H578.561V111.687H582.552V115.677H572.577V99.7212H582.552Z" fill="#6C63FF"/>
<path d="M572.577 177.504H582.552V193.459H572.577V177.504Z" fill="#6C63FF"/>
<path d="M582.552 151.577V155.565H578.561V163.543H582.552V167.532H572.577V151.577H582.552Z" fill="#6C63FF"/>
<path d="M572.577 229.359H582.552V245.314H572.577V229.359Z" fill="#6C63FF"/>
<path d="M582.552 203.431V207.42H578.561V215.398H582.552V219.387H572.577V203.431H582.552Z" fill="#6C63FF"/>
<path d="M572.577 281.214H582.552V297.169H572.577V281.214Z" fill="#6C63FF"/>
<path d="M582.552 255.286V259.276H578.561V267.253H582.552V271.242H572.577V255.286H582.552Z" fill="#6C63FF"/>
<path d="M572.577 333.069H582.552V349.024H572.577V333.069Z" fill="#6C63FF"/>
<path d="M572.577 400.88H582.552V416.835H572.577V400.88Z" fill="#6C63FF"/>
<path d="M582.552 307.142V311.13H578.561V319.108H582.552V323.097H572.577V307.142H582.552Z" fill="#6C63FF"/>
<path d="M582.552 428.802V432.79H578.561V440.768H582.552V444.756H572.577V428.802H582.552Z" fill="#6C63FF"/>
<path d="M524.696 0H534.671V15.9554H524.696V0Z" fill="#6C63FF"/>
<path d="M524.696 125.649H534.671V141.604H524.696V125.649Z" fill="#6C63FF"/>
<path d="M520.706 382.93H534.671V384.924H520.706V382.93Z" fill="#6C63FF"/>
<path d="M534.672 47.8667V51.855H530.681V59.8329H534.672V63.8212H524.696V47.8667H534.672Z" fill="#6C63FF"/>
<path d="M534.672 73.7933V77.7829H530.681V85.7608H534.672V89.7491H524.696V73.7933H534.672Z" fill="#6C63FF"/>
<path d="M534.672 99.7212V103.711H530.681V111.687H534.672V115.677H524.696V99.7212H534.672Z" fill="#6C63FF"/>
<path d="M524.696 177.504H534.671V193.459H524.696V177.504Z" fill="#6C63FF"/>
<path d="M534.672 151.577V155.565H530.681V163.543H534.672V167.532H524.696V151.577H534.672Z" fill="#6C63FF"/>
<path d="M524.696 229.359H534.671V245.314H524.696V229.359Z" fill="#6C63FF"/>
<path d="M534.672 203.431V207.42H530.681V215.398H534.672V219.387H524.696V203.431H534.672Z" fill="#6C63FF"/>
<path d="M524.696 281.214H534.671V297.169H524.696V281.214Z" fill="#6C63FF"/>
<path d="M534.672 255.286V259.276H530.681V267.253H534.672V271.242H524.696V255.286H534.672Z" fill="#6C63FF"/>
<path d="M524.696 333.069H534.671V349.024H524.696V333.069Z" fill="#6C63FF"/>
<path d="M524.696 400.88H534.671V416.835H524.696V400.88Z" fill="#6C63FF"/>
<path d="M534.672 307.142V311.13H530.681V319.108H534.672V323.097H524.696V307.142H534.672Z" fill="#6C63FF"/>
<path d="M534.672 428.802V432.79H530.681V440.768H534.672V444.756H524.696V428.802H534.672Z" fill="#6C63FF"/>
<path d="M674.324 400.88V404.868H670.333V412.846H674.324V416.834H664.348V400.88H674.324Z" fill="#6C63FF"/>
<path d="M674.324 426.808V430.796H670.333V438.774H674.324V442.762H664.348V426.808H674.324Z" fill="#6C63FF"/>
<path d="M726.195 125.649V129.637H722.206V137.615H726.195V141.605H716.22V125.649H726.195Z" fill="#6C63FF"/>
<path d="M726.195 227.365V231.353H722.206V239.331H726.195V243.32H716.22V227.365H726.195Z" fill="#6C63FF"/>
<path d="M726.195 253.292V257.281H722.206V265.259H726.195V269.248H716.22V253.292H726.195Z" fill="#6C63FF"/>
<path d="M726.195 305.148V309.136H722.206V317.114H726.195V321.102H716.22V305.148H726.195Z" fill="#6C63FF"/>
<path d="M726.195 378.94V382.93H722.206V390.908H726.195V394.896H716.22V378.94H726.195Z" fill="#6C63FF"/>
<path d="M726.195 400.88V404.868H722.206V412.846H726.195V416.834H716.22V400.88H726.195Z" fill="#6C63FF"/>
<path d="M612.478 3.98886H622.453V19.9443H612.478V3.98886Z" fill="#6C63FF"/>
<path d="M612.478 29.9164H622.453V45.8718H612.478V29.9164Z" fill="#6C63FF"/>
<path d="M612.478 57.8383H626.443V59.8328H612.478V57.8383Z" fill="#6C63FF"/>
<path d="M612.478 185.482H626.443V187.476H612.478V185.482Z" fill="#6C63FF"/>
<path d="M612.478 207.42H626.443V209.415H612.478V207.42Z" fill="#6C63FF"/>
<path d="M622.453 75.7887V79.777H618.464V87.755H622.453V91.7433H612.478V75.7887H622.453Z" fill="#6C63FF"/>
<path d="M622.453 125.649V129.637H618.464V137.615H622.453V141.605H612.478V125.649H622.453Z" fill="#6C63FF"/>
<path d="M622.453 227.365V231.353H618.464V239.331H622.453V243.32H612.478V227.365H622.453Z" fill="#6C63FF"/>
<path d="M498.76 177.504H508.735V193.459H498.76V177.504Z" fill="#6C63FF"/>
<path d="M498.76 203.431H508.735V219.387H498.76V203.431Z" fill="#6C63FF"/>
<path d="M498.76 231.353H512.726V233.348H498.76V231.353Z" fill="#6C63FF"/>
<path d="M498.76 358.997H512.726V360.991H498.76V358.997Z" fill="#6C63FF"/>
<path d="M498.76 380.935H512.726V382.93H498.76V380.935Z" fill="#6C63FF"/>
<path d="M508.735 249.303V253.292H504.746V261.27H508.735V265.259H498.76V249.303H508.735Z" fill="#6C63FF"/>
<path d="M508.735 299.164V303.153H504.746V311.13H508.735V315.12H498.76V299.164H508.735Z" fill="#6C63FF"/>
<path d="M508.735 400.88V404.868H504.746V412.846H508.735V416.834H498.76V400.88H508.735Z" fill="#6C63FF"/>
<path d="M466.84 3.98886H476.815V19.9443H466.84V3.98886Z" fill="#6C63FF"/>
<path d="M432.924 0H442.899V15.9554H432.924V0Z" fill="#6C63FF"/>
<path d="M414.969 0H424.944V15.9554H414.969V0Z" fill="#6C63FF"/>
<path d="M414.969 47.8662H424.944V63.8216H414.969V47.8662Z" fill="#6C63FF"/>
<path d="M395.018 23.9332H404.993V39.8886H395.018V23.9332Z" fill="#6C63FF"/>
<path d="M395.018 49.8607H404.993V65.816H395.018V49.8607Z" fill="#6C63FF"/>
<path d="M414.969 99.7213H424.944V115.677H414.969V99.7213Z" fill="#6C63FF"/>
<path d="M395.018 125.649H404.993V141.604H395.018V125.649Z" fill="#6C63FF"/>
<path d="M414.969 223.376H424.944V239.331H414.969V223.376Z" fill="#6C63FF"/>
<path d="M432.924 125.649H442.899V141.604H432.924V125.649Z" fill="#6C63FF"/>
<path d="M466.84 29.9164H476.815V45.8718H466.84V29.9164Z" fill="#6C63FF"/>
<path d="M466.84 279.22H476.815V295.175H466.84V279.22Z" fill="#6C63FF"/>
<path d="M466.84 331.075H476.815V347.03H466.84V331.075Z" fill="#6C63FF"/>
<path d="M466.84 357.002H476.815V372.958H466.84V357.002Z" fill="#6C63FF"/>
<path d="M466.84 57.8383H480.805V59.8328H466.84V57.8383Z" fill="#6C63FF"/>
<path d="M412.973 81.7715H426.939V83.7659H412.973V81.7715Z" fill="#6C63FF"/>
<path d="M466.84 185.482H480.805V187.476H466.84V185.482Z" fill="#6C63FF"/>
<path d="M466.84 207.42H480.805V209.415H466.84V207.42Z" fill="#6C63FF"/>
<path d="M412.973 335.064H426.939V337.058H412.973V335.064Z" fill="#6C63FF"/>
<path d="M428.934 382.93H442.899V384.924H428.934V382.93Z" fill="#6C63FF"/>
<path d="M476.815 75.7887V79.777H472.825V87.755H476.815V91.7433H466.84V75.7887H476.815Z" fill="#6C63FF"/>
<path d="M442.899 47.8667V51.855H438.91V59.8329H442.899V63.8212H432.924V47.8667H442.899Z" fill="#6C63FF"/>
<path d="M404.993 73.7933V77.7829H401.004V85.7608H404.993V89.7491H395.018V73.7933H404.993Z" fill="#6C63FF"/>
<path d="M404.993 151.577V155.565H401.004V163.543H404.993V167.532H395.018V151.577H404.993Z" fill="#6C63FF"/>
<path d="M404.993 177.504V181.493H401.004V189.471H404.993V193.459H395.018V177.504H404.993Z" fill="#6C63FF"/>
<path d="M404.993 97.727V101.715H401.004V109.693H404.993V113.683H395.018V97.727H404.993Z" fill="#6C63FF"/>
<path d="M424.944 23.9329V27.9225H420.954V35.8991H424.944V39.8887H414.969V23.9329H424.944Z" fill="#6C63FF"/>
<path d="M414.969 151.576H424.944V167.532H414.969V151.576Z" fill="#6C63FF"/>
<path d="M414.969 199.443H424.944V215.398H414.969V199.443Z" fill="#6C63FF"/>
<path d="M424.944 175.509V179.498H420.954V187.476H424.944V191.465H414.969V175.509H424.944Z" fill="#6C63FF"/>
<path d="M442.899 73.7933V77.7829H438.91V85.7608H442.899V89.7491H432.924V73.7933H442.899Z" fill="#6C63FF"/>
<path d="M442.899 99.7212V103.711H438.91V111.687H442.899V115.677H432.924V99.7212H442.899Z" fill="#6C63FF"/>
<path d="M432.924 177.504H442.899V193.459H432.924V177.504Z" fill="#6C63FF"/>
<path d="M442.899 151.577V155.565H438.91V163.543H442.899V167.532H432.924V151.577H442.899Z" fill="#6C63FF"/>
<path d="M432.924 229.359H442.899V245.314H432.924V229.359Z" fill="#6C63FF"/>
<path d="M442.899 203.431V207.42H438.91V215.398H442.899V219.387H432.924V203.431H442.899Z" fill="#6C63FF"/>
<path d="M432.924 281.214H442.899V297.169H432.924V281.214Z" fill="#6C63FF"/>
<path d="M414.969 277.225H424.944V293.181H414.969V277.225Z" fill="#6C63FF"/>
<path d="M442.899 255.286V259.276H438.91V267.253H442.899V271.242H432.924V255.286H442.899Z" fill="#6C63FF"/>
<path d="M404.993 255.286V259.276H401.004V267.253H404.993V271.242H395.018V255.286H404.993Z" fill="#6C63FF"/>
<path d="M293.271 23.9332H303.246V39.8886H293.271V23.9332Z" fill="#6C63FF"/>
<path d="M293.271 49.8607H303.246V65.816H293.271V49.8607Z" fill="#6C63FF"/>
<path d="M293.271 125.649H303.246V141.604H293.271V125.649Z" fill="#6C63FF"/>
<path d="M303.246 73.7933V77.7829H299.256V85.7608H303.246V89.7491H293.271V73.7933H303.246Z" fill="#6C63FF"/>
<path d="M303.246 151.577V155.565H299.256V163.543H303.246V167.532H293.271V151.577H303.246Z" fill="#6C63FF"/>
<path d="M303.246 177.504V181.493H299.256V189.471H303.246V193.459H293.271V177.504H303.246Z" fill="#6C63FF"/>
<path d="M303.246 97.727V101.715H299.256V109.693H303.246V113.683H293.271V97.727H303.246Z" fill="#6C63FF"/>
<path d="M303.246 255.286V259.276H299.256V267.253H303.246V271.242H293.271V255.286H303.246Z" fill="#6C63FF"/>
<path d="M432.924 333.069H442.899V349.024H432.924V333.069Z" fill="#6C63FF"/>
<path d="M414.969 303.153H424.944V319.108H414.969V303.153Z" fill="#6C63FF"/>
<path d="M432.924 400.88H442.899V416.835H432.924V400.88Z" fill="#6C63FF"/>
<path d="M414.969 353.013H424.944V368.969H414.969V353.013Z" fill="#6C63FF"/>
<path d="M442.899 307.142V311.13H438.91V319.108H442.899V323.097H432.924V307.142H442.899Z" fill="#6C63FF"/>
<path d="M442.899 428.802V432.79H438.91V440.768H442.899V444.756H432.924V428.802H442.899Z" fill="#6C63FF"/>
<path d="M323.197 0H333.172V15.9554H323.197V0Z" fill="#6C63FF"/>
<path d="M323.197 125.649H333.172V141.604H323.197V125.649Z" fill="#6C63FF"/>
<path d="M319.207 382.93H333.172V384.924H319.207V382.93Z" fill="#6C63FF"/>
<path d="M333.172 47.8667V51.855H329.182V59.8329H333.172V63.8212H323.197V47.8667H333.172Z" fill="#6C63FF"/>
<path d="M333.172 73.7933V77.7829H329.182V85.7608H333.172V89.7491H323.197V73.7933H333.172Z" fill="#6C63FF"/>
<path d="M333.172 99.7212V103.711H329.182V111.687H333.172V115.677H323.197V99.7212H333.172Z" fill="#6C63FF"/>
<path d="M323.197 177.504H333.172V193.459H323.197V177.504Z" fill="#6C63FF"/>
<path d="M333.172 151.577V155.565H329.182V163.543H333.172V167.532H323.197V151.577H333.172Z" fill="#6C63FF"/>
<path d="M323.197 229.359H333.172V245.314H323.197V229.359Z" fill="#6C63FF"/>
<path d="M333.172 203.431V207.42H329.182V215.398H333.172V219.387H323.197V203.431H333.172Z" fill="#6C63FF"/>
<path d="M323.197 281.214H333.172V297.169H323.197V281.214Z" fill="#6C63FF"/>
<path d="M333.172 255.286V259.276H329.182V267.253H333.172V271.242H323.197V255.286H333.172Z" fill="#6C63FF"/>
<path d="M323.197 333.069H333.172V349.024H323.197V333.069Z" fill="#6C63FF"/>
<path d="M323.197 400.88H333.172V416.835H323.197V400.88Z" fill="#6C63FF"/>
<path d="M333.172 307.142V311.13H329.182V319.108H333.172V323.097H323.197V307.142H333.172Z" fill="#6C63FF"/>
<path d="M333.172 428.802V432.79H329.182V440.768H333.172V444.756H323.197V428.802H333.172Z" fill="#6C63FF"/>
<path d="M275.316 0H285.291V15.9554H275.316V0Z" fill="#6C63FF"/>
<path d="M275.316 125.649H285.291V141.604H275.316V125.649Z" fill="#6C63FF"/>
<path d="M271.326 382.93H285.291V384.924H271.326V382.93Z" fill="#6C63FF"/>
<path d="M285.292 47.8667V51.855H281.301V59.8329H285.292V63.8212H275.316V47.8667H285.292Z" fill="#6C63FF"/>
<path d="M285.292 73.7933V77.7829H281.301V85.7608H285.292V89.7491H275.316V73.7933H285.292Z" fill="#6C63FF"/>
<path d="M285.292 99.7212V103.711H281.301V111.687H285.292V115.677H275.316V99.7212H285.292Z" fill="#6C63FF"/>
<path d="M275.316 177.504H285.291V193.459H275.316V177.504Z" fill="#6C63FF"/>
<path d="M285.292 151.577V155.565H281.301V163.543H285.292V167.532H275.316V151.577H285.292Z" fill="#6C63FF"/>
<path d="M275.316 229.359H285.291V245.314H275.316V229.359Z" fill="#6C63FF"/>
<path d="M285.292 203.431V207.42H281.301V215.398H285.292V219.387H275.316V203.431H285.292Z" fill="#6C63FF"/>
<path d="M275.316 281.214H285.291V297.169H275.316V281.214Z" fill="#6C63FF"/>
<path d="M285.292 255.286V259.276H281.301V267.253H285.292V271.242H275.316V255.286H285.292Z" fill="#6C63FF"/>
<path d="M275.316 333.069H285.291V349.024H275.316V333.069Z" fill="#6C63FF"/>
<path d="M275.316 400.88H285.291V416.835H275.316V400.88Z" fill="#6C63FF"/>
<path d="M285.292 307.142V311.13H281.301V319.108H285.292V323.097H275.316V307.142H285.292Z" fill="#6C63FF"/>
<path d="M285.292 428.802V432.79H281.301V440.768H285.292V444.756H275.316V428.802H285.292Z" fill="#6C63FF"/>
<path d="M424.944 400.88V404.868H420.954V412.846H424.944V416.834H414.969V400.88H424.944Z" fill="#6C63FF"/>
<path d="M424.944 426.808V430.796H420.954V438.774H424.944V442.762H414.969V426.808H424.944Z" fill="#6C63FF"/>
<path d="M476.815 125.649V129.637H472.825V137.615H476.815V141.605H466.84V125.649H476.815Z" fill="#6C63FF"/>
<path d="M476.815 227.365V231.353H472.825V239.331H476.815V243.32H466.84V227.365H476.815Z" fill="#6C63FF"/>
<path d="M476.815 253.292V257.281H472.825V265.259H476.815V269.248H466.84V253.292H476.815Z" fill="#6C63FF"/>
<path d="M476.815 305.148V309.136H472.825V317.114H476.815V321.102H466.84V305.148H476.815Z" fill="#6C63FF"/>
<path d="M476.815 378.94V382.93H472.825V390.908H476.815V394.896H466.84V378.94H476.815Z" fill="#6C63FF"/>
<path d="M476.815 400.88V404.868H472.825V412.846H476.815V416.834H466.84V400.88H476.815Z" fill="#6C63FF"/>
<path d="M363.098 3.98886H373.073V19.9443H363.098V3.98886Z" fill="#6C63FF"/>
<path d="M363.098 29.9164H373.073V45.8718H363.098V29.9164Z" fill="#6C63FF"/>
<path d="M363.098 57.8383H377.063V59.8328H363.098V57.8383Z" fill="#6C63FF"/>
<path d="M363.098 185.482H377.063V187.476H363.098V185.482Z" fill="#6C63FF"/>
<path d="M363.098 207.42H377.063V209.415H363.098V207.42Z" fill="#6C63FF"/>
<path d="M373.073 75.7887V79.777H369.082V87.755H373.073V91.7433H363.098V75.7887H373.073Z" fill="#6C63FF"/>
<path d="M373.073 125.649V129.637H369.082V137.615H373.073V141.605H363.098V125.649H373.073Z" fill="#6C63FF"/>
<path d="M373.073 227.365V231.353H369.082V239.331H373.073V243.32H363.098V227.365H373.073Z" fill="#6C63FF"/>
<path d="M249.381 177.504H259.356V193.459H249.381V177.504Z" fill="#6C63FF"/>
<path d="M249.381 203.431H259.356V219.387H249.381V203.431Z" fill="#6C63FF"/>
<path d="M249.38 231.353H263.345V233.348H249.38V231.353Z" fill="#6C63FF"/>
<path d="M249.38 358.997H263.345V360.991H249.38V358.997Z" fill="#6C63FF"/>
<path d="M249.38 380.935H263.345V382.93H249.38V380.935Z" fill="#6C63FF"/>
<path d="M259.356 249.303V253.292H255.365V261.27H259.356V265.259H249.381V249.303H259.356Z" fill="#6C63FF"/>
<path d="M259.356 299.164V303.153H255.365V311.13H259.356V315.12H249.381V299.164H259.356Z" fill="#6C63FF"/>
<path d="M259.356 400.88V404.868H255.365V412.846H259.356V416.834H249.381V400.88H259.356Z" fill="#6C63FF"/>
<path d="M217.459 3.98886H227.434V19.9443H217.459V3.98886Z" fill="#6C63FF"/>
<path d="M183.544 0H193.52V15.9554H183.544V0Z" fill="#6C63FF"/>
<path d="M165.588 0H175.564V15.9554H165.588V0Z" fill="#6C63FF"/>
<path d="M165.588 47.8662H175.564V63.8216H165.588V47.8662Z" fill="#6C63FF"/>
<path d="M145.638 23.9332H155.613V39.8886H145.638V23.9332Z" fill="#6C63FF"/>
<path d="M145.638 49.8607H155.613V65.816H145.638V49.8607Z" fill="#6C63FF"/>
<path d="M165.588 99.7213H175.564V115.677H165.588V99.7213Z" fill="#6C63FF"/>
<path d="M145.638 125.649H155.613V141.604H145.638V125.649Z" fill="#6C63FF"/>
<path d="M165.588 223.376H175.564V239.331H165.588V223.376Z" fill="#6C63FF"/>
<path d="M183.544 125.649H193.52V141.604H183.544V125.649Z" fill="#6C63FF"/>
<path d="M217.459 29.9164H227.434V45.8718H217.459V29.9164Z" fill="#6C63FF"/>
<path d="M217.459 279.22H227.434V295.175H217.459V279.22Z" fill="#6C63FF"/>
<path d="M217.459 331.075H227.434V347.03H217.459V331.075Z" fill="#6C63FF"/>
<path d="M217.459 357.002H227.434V372.958H217.459V357.002Z" fill="#6C63FF"/>
<path d="M217.46 57.8383H231.425V59.8328H217.46V57.8383Z" fill="#6C63FF"/>
<path d="M163.594 81.7715H177.559V83.7659H163.594V81.7715Z" fill="#6C63FF"/>
<path d="M217.46 185.482H231.425V187.476H217.46V185.482Z" fill="#6C63FF"/>
<path d="M217.46 207.42H231.425V209.415H217.46V207.42Z" fill="#6C63FF"/>
<path d="M163.594 335.064H177.559V337.058H163.594V335.064Z" fill="#6C63FF"/>
<path d="M179.554 382.93H193.52V384.924H179.554V382.93Z" fill="#6C63FF"/>
<path d="M227.435 75.7887V79.777H223.444V87.755H227.435V91.7433H217.459V75.7887H227.435Z" fill="#6C63FF"/>
<path d="M193.52 47.8667V51.855H189.53V59.8329H193.52V63.8212H183.544V47.8667H193.52Z" fill="#6C63FF"/>
<path d="M155.613 73.7933V77.7829H151.624V85.7608H155.613V89.7491H145.638V73.7933H155.613Z" fill="#6C63FF"/>
<path d="M155.613 151.577V155.565H151.624V163.543H155.613V167.532H145.638V151.577H155.613Z" fill="#6C63FF"/>
<path d="M155.613 177.504V181.493H151.624V189.471H155.613V193.459H145.638V177.504H155.613Z" fill="#6C63FF"/>
<path d="M155.613 97.727V101.715H151.624V109.693H155.613V113.683H145.638V97.727H155.613Z" fill="#6C63FF"/>
<path d="M175.564 23.9329V27.9225H171.574V35.8991H175.564V39.8887H165.588V23.9329H175.564Z" fill="#6C63FF"/>
<path d="M165.588 151.576H175.564V167.532H165.588V151.576Z" fill="#6C63FF"/>
<path d="M165.588 199.443H175.564V215.398H165.588V199.443Z" fill="#6C63FF"/>
<path d="M175.564 175.509V179.498H171.574V187.476H175.564V191.465H165.588V175.509H175.564Z" fill="#6C63FF"/>
<path d="M193.52 73.7933V77.7829H189.53V85.7608H193.52V89.7491H183.544V73.7933H193.52Z" fill="#6C63FF"/>
<path d="M193.52 99.7212V103.711H189.53V111.687H193.52V115.677H183.544V99.7212H193.52Z" fill="#6C63FF"/>
<path d="M183.544 177.504H193.52V193.459H183.544V177.504Z" fill="#6C63FF"/>
<path d="M193.52 151.577V155.565H189.53V163.543H193.52V167.532H183.544V151.577H193.52Z" fill="#6C63FF"/>
<path d="M183.544 229.359H193.52V245.314H183.544V229.359Z" fill="#6C63FF"/>
<path d="M193.52 203.431V207.42H189.53V215.398H193.52V219.387H183.544V203.431H193.52Z" fill="#6C63FF"/>
<path d="M183.544 281.214H193.52V297.169H183.544V281.214Z" fill="#6C63FF"/>
<path d="M165.588 277.225H175.564V293.181H165.588V277.225Z" fill="#6C63FF"/>
<path d="M193.52 255.286V259.276H189.53V267.253H193.52V271.242H183.544V255.286H193.52Z" fill="#6C63FF"/>
<path d="M155.613 255.286V259.276H151.624V267.253H155.613V271.242H145.638V255.286H155.613Z" fill="#6C63FF"/>
<path d="M43.8914 23.9332H53.8667V39.8886H43.8914V23.9332Z" fill="#6C63FF"/>
<path d="M43.8914 49.8607H53.8667V65.816H43.8914V49.8607Z" fill="#6C63FF"/>
<path d="M43.8914 125.649H53.8667V141.604H43.8914V125.649Z" fill="#6C63FF"/>
<path d="M53.8667 73.7933V77.7829H49.8772V85.7608H53.8667V89.7491H43.8917V73.7933H53.8667Z" fill="#6C63FF"/>
<path d="M53.8667 151.577V155.565H49.8772V163.543H53.8667V167.532H43.8917V151.577H53.8667Z" fill="#6C63FF"/>
<path d="M53.8667 177.504V181.493H49.8772V189.471H53.8667V193.459H43.8917V177.504H53.8667Z" fill="#6C63FF"/>
<path d="M53.8667 97.727V101.715H49.8772V109.693H53.8667V113.683H43.8917V97.727H53.8667Z" fill="#6C63FF"/>
<path d="M53.8667 255.286V259.276H49.8772V267.253H53.8667V271.242H43.8917V255.286H53.8667Z" fill="#6C63FF"/>
<path d="M183.544 333.069H193.52V349.024H183.544V333.069Z" fill="#6C63FF"/>
<path d="M165.588 303.153H175.564V319.108H165.588V303.153Z" fill="#6C63FF"/>
<path d="M183.544 400.88H193.52V416.835H183.544V400.88Z" fill="#6C63FF"/>
<path d="M165.588 353.013H175.564V368.969H165.588V353.013Z" fill="#6C63FF"/>
<path d="M193.52 307.142V311.13H189.53V319.108H193.52V323.097H183.544V307.142H193.52Z" fill="#6C63FF"/>
<path d="M193.52 428.802V432.79H189.53V440.768H193.52V444.756H183.544V428.802H193.52Z" fill="#6C63FF"/>
<path d="M73.8169 0H83.7922V15.9554H73.8169V0Z" fill="#6C63FF"/>
<path d="M73.8169 125.649H83.7922V141.604H73.8169V125.649Z" fill="#6C63FF"/>
<path d="M69.8269 382.93H83.7922V384.924H69.8269V382.93Z" fill="#6C63FF"/>
<path d="M83.7917 47.8667V51.855H79.8022V59.8329H83.7917V63.8212H73.8166V47.8667H83.7917Z" fill="#6C63FF"/>
<path d="M83.7917 73.7933V77.7829H79.8022V85.7608H83.7917V89.7491H73.8166V73.7933H83.7917Z" fill="#6C63FF"/>
<path d="M83.7917 99.7212V103.711H79.8022V111.687H83.7917V115.677H73.8166V99.7212H83.7917Z" fill="#6C63FF"/>
<path d="M73.8169 177.504H83.7922V193.459H73.8169V177.504Z" fill="#6C63FF"/>
<path d="M83.7917 151.577V155.565H79.8022V163.543H83.7917V167.532H73.8166V151.577H83.7917Z" fill="#6C63FF"/>
<path d="M73.8169 229.359H83.7922V245.314H73.8169V229.359Z" fill="#6C63FF"/>
<path d="M83.7917 203.431V207.42H79.8022V215.398H83.7917V219.387H73.8166V203.431H83.7917Z" fill="#6C63FF"/>
<path d="M73.8169 281.214H83.7922V297.169H73.8169V281.214Z" fill="#6C63FF"/>
<path d="M83.7917 255.286V259.276H79.8022V267.253H83.7917V271.242H73.8166V255.286H83.7917Z" fill="#6C63FF"/>
<path d="M73.8169 333.069H83.7922V349.024H73.8169V333.069Z" fill="#6C63FF"/>
<path d="M73.8169 400.88H83.7922V416.835H73.8169V400.88Z" fill="#6C63FF"/>
<path d="M83.7917 307.142V311.13H79.8022V319.108H83.7917V323.097H73.8166V307.142H83.7917Z" fill="#6C63FF"/>
<path d="M83.7917 428.802V432.79H79.8022V440.768H83.7917V444.756H73.8166V428.802H83.7917Z" fill="#6C63FF"/>
<path d="M25.9356 0H35.9109V15.9554H25.9356V0Z" fill="#6C63FF"/>
<path d="M25.9356 125.649H35.9109V141.604H25.9356V125.649Z" fill="#6C63FF"/>
<path d="M21.9456 382.93H35.9109V384.924H21.9456V382.93Z" fill="#6C63FF"/>
<path d="M35.9109 47.8667V51.855H31.9213V59.8329H35.9109V63.8212H25.9356V47.8667H35.9109Z" fill="#6C63FF"/>
<path d="M35.9109 73.7933V77.7829H31.9213V85.7608H35.9109V89.7491H25.9356V73.7933H35.9109Z" fill="#6C63FF"/>
<path d="M35.9109 99.7212V103.711H31.9213V111.687H35.9109V115.677H25.9356V99.7212H35.9109Z" fill="#6C63FF"/>
<path d="M25.9356 177.504H35.9109V193.459H25.9356V177.504Z" fill="#6C63FF"/>
<path d="M35.9109 151.577V155.565H31.9213V163.543H35.9109V167.532H25.9356V151.577H35.9109Z" fill="#6C63FF"/>
<path d="M25.9356 229.359H35.9109V245.314H25.9356V229.359Z" fill="#6C63FF"/>
<path d="M35.9109 203.431V207.42H31.9213V215.398H35.9109V219.387H25.9356V203.431H35.9109Z" fill="#6C63FF"/>
<path d="M25.9356 281.214H35.9109V297.169H25.9356V281.214Z" fill="#6C63FF"/>
<path d="M35.9109 255.286V259.276H31.9213V267.253H35.9109V271.242H25.9356V255.286H35.9109Z" fill="#6C63FF"/>
<path d="M25.9356 333.069H35.9109V349.024H25.9356V333.069Z" fill="#6C63FF"/>
<path d="M25.9356 400.88H35.9109V416.835H25.9356V400.88Z" fill="#6C63FF"/>
<path d="M35.9109 307.142V311.13H31.9213V319.108H35.9109V323.097H25.9356V307.142H35.9109Z" fill="#6C63FF"/>
<path d="M35.9109 428.802V432.79H31.9213V440.768H35.9109V444.756H25.9356V428.802H35.9109Z" fill="#6C63FF"/>
<path d="M175.564 400.88V404.868H171.574V412.846H175.564V416.834H165.588V400.88H175.564Z" fill="#6C63FF"/>
<path d="M175.564 426.808V430.796H171.574V438.774H175.564V442.762H165.588V426.808H175.564Z" fill="#6C63FF"/>
<path d="M227.435 125.649V129.637H223.444V137.615H227.435V141.605H217.459V125.649H227.435Z" fill="#6C63FF"/>
<path d="M227.435 227.365V231.353H223.444V239.331H227.435V243.32H217.459V227.365H227.435Z" fill="#6C63FF"/>
<path d="M227.435 253.292V257.281H223.444V265.259H227.435V269.248H217.459V253.292H227.435Z" fill="#6C63FF"/>
<path d="M227.435 305.148V309.136H223.444V317.114H227.435V321.102H217.459V305.148H227.435Z" fill="#6C63FF"/>
<path d="M227.435 378.94V382.93H223.444V390.908H227.435V394.896H217.459V378.94H227.435Z" fill="#6C63FF"/>
<path d="M227.435 400.88V404.868H223.444V412.846H227.435V416.834H217.459V400.88H227.435Z" fill="#6C63FF"/>
<path d="M113.717 3.98886H123.692V19.9443H113.717V3.98886Z" fill="#6C63FF"/>
<path d="M113.717 29.9164H123.692V45.8718H113.717V29.9164Z" fill="#6C63FF"/>
<path d="M113.718 57.8383H127.683V59.8328H113.718V57.8383Z" fill="#6C63FF"/>
<path d="M113.718 185.482H127.683V187.476H113.718V185.482Z" fill="#6C63FF"/>
<path d="M113.718 207.42H127.683V209.415H113.718V207.42Z" fill="#6C63FF"/>
<path d="M123.693 75.7887V79.777H119.702V87.755H123.693V91.7433H113.718V75.7887H123.693Z" fill="#6C63FF"/>
<path d="M123.693 125.649V129.637H119.702V137.615H123.693V141.605H113.718V125.649H123.693Z" fill="#6C63FF"/>
<path d="M123.693 227.365V231.353H119.702V239.331H123.693V243.32H113.718V227.365H123.693Z" fill="#6C63FF"/>
<path d="M3.71933e-05 177.504H9.97534V193.459H3.71933e-05V177.504Z" fill="#6C63FF"/>
<path d="M3.71933e-05 203.431H9.97534V219.387H3.71933e-05V203.431Z" fill="#6C63FF"/>
<path d="M0.00033474 231.353H13.9656V233.348H0.00033474V231.353Z" fill="#6C63FF"/>
<path d="M0.00033474 358.997H13.9656V360.991H0.00033474V358.997Z" fill="#6C63FF"/>
<path d="M0.00033474 380.935H13.9656V382.93H0.00033474V380.935Z" fill="#6C63FF"/>
<path d="M9.97632 249.303V253.292H5.98545V261.27H9.97632V265.259H0.00119972V249.303H9.97632Z" fill="#6C63FF"/>
<path d="M9.97632 299.164V303.153H5.98545V311.13H9.97632V315.12H0.00119972V299.164H9.97632Z" fill="#6C63FF"/>
<path d="M9.97632 400.88V404.868H5.98545V412.846H9.97632V416.834H0.00119972V400.88H9.97632Z" fill="#6C63FF"/>
<path d="M432.317 440.792V507.996L423.268 549.353C423.268 549.353 424.561 575.2 423.268 582.955C421.975 590.709 424.561 603.633 432.317 603.633C440.074 603.633 443.952 623.019 443.952 623.019C443.952 623.019 446.538 630.773 453.002 632.065C459.466 633.358 459.466 632.065 459.466 632.065L464.637 644.989L571.938 716.071L551.254 767.766C551.254 767.766 518.934 756.135 516.348 752.258C513.763 748.38 491.786 757.427 491.786 748.38C491.786 739.334 487.907 716.071 480.15 714.778C472.394 713.486 407.754 683.761 407.754 683.761C407.754 683.761 374.142 646.282 371.556 632.065C368.971 617.849 357.336 577.785 357.336 577.785L325.016 632.065V740.626L330.187 798.783L273.305 791.029C273.305 791.029 278.476 754.842 273.305 749.673C268.134 744.503 260.377 682.469 265.548 674.714C270.719 666.96 262.962 632.065 265.548 626.896C268.134 621.726 266.841 584.247 273.305 573.908C279.769 563.569 318.552 457.593 318.552 457.593L432.317 440.792Z" fill="#2F2E41"/>
<path d="M322.431 796.199C322.431 796.199 341.822 828.508 328.894 832.385C315.967 836.263 291.404 832.385 288.818 832.385C286.233 832.385 239.692 833.678 239.692 833.678C239.692 833.678 208.665 827.216 208.665 818.169C208.665 809.122 228.057 809.122 234.521 807.83C240.985 806.538 281.061 791.029 281.061 791.029L322.431 796.199Z" fill="#2F2E41"/>
<path d="M566.001 717.529C566.001 717.529 603.366 712.582 601.786 725.982C600.207 739.382 586.885 760.374 585.857 762.746C585.161 764.352 576.996 784.688 571.798 797.648C568.041 807.148 562.396 815.788 555.205 823.046C550.122 828.124 544.583 832.195 540.95 830.622C532.646 827.026 540.354 809.237 541.737 802.794C543.12 796.351 544.813 753.423 544.813 753.423L566.001 717.529Z" fill="#2F2E41"/>
<path d="M306.271 226.902L264.902 131.265C264.902 131.265 268.78 122.218 277.83 123.511C277.83 123.511 290.111 91.8473 313.381 91.8473C313.381 91.8473 348.286 72.4615 358.629 91.8473C358.629 91.8473 380.606 111.233 379.313 129.327C378.02 147.42 376.728 160.344 376.728 160.344C376.728 160.344 397.412 162.929 393.534 173.268C389.656 183.607 388.363 183.607 393.534 187.484L398.705 191.361C398.705 191.361 506.006 288.29 446.538 430.453L441.367 452.423V473.102C441.367 473.102 310.796 474.394 310.796 473.102C310.796 471.809 313.381 464.055 308.21 458.885C303.039 453.716 303.039 445.962 303.039 445.962C303.039 445.962 308.21 420.114 305.624 412.359C303.039 404.605 301.746 371.003 306.917 363.249C312.088 355.494 309.503 293.46 309.503 293.46L297.868 271.489L301.746 258.565L305.624 245.641L306.271 226.902Z" fill="#8985A8"/>
<path opacity="0.1" d="M317.259 486.026C317.259 486.026 332.773 443.377 331.48 435.623C330.187 427.868 334.066 412.36 334.066 412.36L339.237 307.676C339.237 307.676 317.259 214.624 366.385 199.116C366.385 199.116 378.816 204.538 389.001 221.987C399.073 226.472 411.295 237.822 414.218 266.32C419.39 316.723 396.119 445.962 384.484 467.932C372.849 489.903 365.093 505.411 365.093 505.411L352.932 500.008C352.43 501.004 352.165 501.534 352.165 501.534L317.259 486.026Z" fill="black"/>
<path d="M310.149 215.27C308.007 215.27 306.271 213.534 306.271 211.393C306.271 209.252 308.007 207.516 310.149 207.516C312.291 207.516 314.028 209.252 314.028 211.393C314.028 213.534 312.291 215.27 310.149 215.27Z" fill="#F2F2F2"/>
<path d="M308.857 211.393H311.442V272.135H308.857V211.393Z" fill="#3F3D56"/>
<path d="M356.69 490.549L346.348 512.52C346.348 512.52 323.077 504.765 323.077 500.888C323.077 497.011 333.42 480.21 333.42 480.21L356.69 490.549Z" fill="#FFB8B8"/>
<path d="M371.557 199.116C371.557 199.116 401.291 212.039 406.462 262.443C411.633 312.846 388.363 442.084 376.728 464.055C365.093 486.026 357.336 501.534 357.336 501.534L322.431 486.026C322.431 486.026 337.944 443.377 336.651 435.623C335.359 427.868 339.237 412.36 339.237 412.36L344.408 307.676C344.408 307.676 322.431 214.624 371.557 199.116Z" fill="#8985A8"/>
</svg>
